<svg width="24" height="22" viewBox="0 0 24 22" fill="none" xmlns="http://www.w3.org/2000/svg">
<path id="cart" d="M12.8583 11.4389V17.5995C12.8583 17.8329 12.768 18.0568 12.6072 18.2218C12.4465 18.3869 12.2285 18.4796 12.0011 18.4796C11.7738 18.4796 11.5558 18.3869 11.3951 18.2218C11.2343 18.0568 11.144 17.8329 11.144 17.5995V11.4389C11.144 11.2054 11.2343 10.9816 11.3951 10.8165C11.5558 10.6515 11.7738 10.5588 12.0011 10.5588C12.2285 10.5588 12.4465 10.6515 12.6072 10.8165C12.768 10.9816 12.8583 11.2054 12.8583 11.4389ZM23.9861 9.03071L22.5011 20.473C22.446 20.8959 22.2433 21.2839 21.9305 21.5647C21.6177 21.8456 21.2163 22.0003 20.8008 22H3.20153C2.78602 22.0003 2.38454 21.8456 2.07177 21.5647C1.759 21.2839 1.55624 20.8959 1.50118 20.473L0.015115 9.03181C-0.017269 8.78307 0.0025221 8.53009 0.0731608 8.28985C0.1438 8.04961 0.263653 7.82765 0.424682 7.63887C0.585712 7.45008 0.784194 7.29884 1.00682 7.19527C1.22944 7.09171 1.47106 7.03822 1.71547 7.03839H5.61224L11.3583 0.297967C11.4387 0.204319 11.5376 0.129317 11.6485 0.0779429C11.7593 0.0265692 11.8795 0 12.0011 0C12.1227 0 12.243 0.0265692 12.3538 0.0779429C12.4646 0.129317 12.5636 0.204319 12.644 0.297967L18.39 7.03839H22.2868C22.5309 7.03855 22.7722 7.09225 22.9945 7.19588C23.2168 7.29952 23.4149 7.45071 23.5757 7.63933C23.7365 7.82795 23.8562 8.04966 23.9268 8.28961C23.9974 8.52957 24.0172 8.78223 23.985 9.03071H23.9861ZM7.89009 7.03839H16.1122L12.0011 2.21437L7.89009 7.03839ZM22.2868 8.79858H1.71547L3.20153 20.2398H20.8008L22.2868 8.79858ZM16.8054 11.3509L16.2054 17.5115C16.1936 17.6269 16.204 17.7435 16.2362 17.8546C16.2684 17.9658 16.3217 18.0694 16.393 18.1593C16.4642 18.2493 16.5521 18.3239 16.6516 18.3789C16.7511 18.4338 16.8602 18.4681 16.9726 18.4796C17.0015 18.4812 17.0304 18.4812 17.0593 18.4796C17.2716 18.4794 17.4763 18.3982 17.6337 18.2519C17.791 18.1055 17.8899 17.9044 17.9111 17.6875L18.5111 11.5269C18.5339 11.2946 18.4658 11.0626 18.3219 10.8819C18.1781 10.7012 17.9702 10.5865 17.744 10.5632C17.5178 10.5398 17.2918 10.6097 17.1158 10.7574C16.9398 10.9051 16.8281 11.1186 16.8054 11.3509ZM7.19688 11.3509C7.17414 11.1186 7.06249 10.9051 6.88647 10.7574C6.71046 10.6097 6.4845 10.5398 6.25831 10.5632C6.03212 10.5865 5.82422 10.7012 5.68035 10.8819C5.53649 11.0626 5.46843 11.2946 5.49117 11.5269L6.09116 17.6875C6.11248 17.9054 6.21212 18.1072 6.37061 18.2537C6.5291 18.4002 6.73508 18.4807 6.9483 18.4796C6.97721 18.4812 7.00618 18.4812 7.03509 18.4796C7.14709 18.4681 7.25577 18.434 7.35494 18.3793C7.45411 18.3246 7.54181 18.2504 7.61305 18.1609C7.68428 18.0714 7.73765 17.9684 7.77011 17.8577C7.80257 17.7471 7.81349 17.6309 7.80223 17.5159L7.19688 11.3509Z" fill="#F27294"/>
</svg>
